<svg version="1.1" preserveAspectRatio="none" xmlns="http://www.w3.org/2000/svg" width="500" height="500" viewBox="0 0 500 500"><rect width="100%" height="100%" fill="#F7F7F7" fill-opacity="1"/><svg viewBox="532.3553 361.4083 380.267 220.2426" width="333" height="192.86655376353986" x="83.5px" y="153.5667px" xmlns="http://www.w3.org/2000/svg" xmlns:xlink="http://www.w3.org/1999/xlink" preserveAspectRatio="none"><defs></defs><style>.companyName {fill:#2B2B2B;fill-opacity:1;}.icon1 {fill:#2B2B2B;fill-opacity:1;}.icon2 {fill:#59C65B;fill-opacity:1;}.icon3 {fill:#6D6D6D;fill-opacity:1;}.icon3-str {stroke:#6D6D6D;stroke-opacity:1;}</style><g opacity="1" transform="rotate(0 646.4354 361.4083)">
<svg width="152.1068" height="130.2426" x="646.4354" y="361.4083" version="1.1" preserveAspectRatio="none" viewBox="20.00136375427246 31.5 159.997314453125 136.99899291992188">
  <g transform="matrix(1 0 0 1 0 0)"><g><path d="M43.451 31.5c-4.806 0-10.146 1.763-13.881 4.813-.359.293-.711.595-1.056.905a25.383 25.383 0 0 0-1.926 1.928c-.298.333-.585.675-.863 1.025a20.696 20.696 0 0 0-1.519 2.188c-.231.382-.449.772-.655 1.169-.164.317-.302.651-.479.961-.027.047-.023.101-.029.153l-.017.18a43.442 43.442 0 0 0-.083 1.071c-.03.467-.029.936-.064 1.402-.74 9.868 2.96 16.673 7.964 23.564.229.315.461.628.695.939 1.602-1.439 3.479-2.505 5.578-3.266a19.108 19.108 0 0 0 6.333 1.093c10.563 0 19.126-8.534 19.126-19.062.002-10.529-8.561-19.063-19.124-19.063zm13.128 13.647c-.105-.268-.192-.55-.307-.81-.008-.08-.007-.156-.016-.236.113.36.216.7.323 1.046z" data-color="1" class="icon1"></path><path d="M143.718 44.103c-.113.36-.217.7-.324 1.047.105-.268.192-.55.307-.81.009-.081.008-.157.017-.237z" data-color="2" class="icon2"></path><path d="M99.837 168.475l.016-.007c-.217-.152-20.598-14.515-13.426-33.954 2.573-6.975 6.982-12.38 12.45-16.866-5.798-4.125-12.226-7.529-17.609-10.457-13.267-7.216-28.138-12.432-38.96-23.37-3.997-4.04-7.75-8.03-10.82-12.1-4.571 4.107-7.15 10.647-7.209 23.674l-1.77-6.204c4.267 18.286 13.71 35.264 27.158 48.419 7.756 7.587 26.568 20.862 26.568 20.862s14.253 8.63 23.574 10.027l.176-.014c-.05-.003-.1-.005-.148-.01z" data-color="2" class="icon2"></path><path d="M21.286 50.514c-.657 3.532-.913 7.217-1.118 10.718a98.665 98.665 0 0 0 4.266 34.973c.06-13.027 2.558-20.312 7.129-24.419-5.949-7.889-9.538-16.325-8.458-27.342-.098.237-.207.464-.301.704a103.826 103.826 0 0 0-1.518 5.366z" data-color="1" class="icon1"></path><path opacity=".5" d="M21.286 50.514c-.657 3.532-.913 7.217-1.118 10.718a98.665 98.665 0 0 0 4.266 34.973c.06-13.027 2.558-20.312 7.129-24.419-5.949-7.889-9.538-16.325-8.458-27.342-.098.237-.207.464-.301.704a103.826 103.826 0 0 0-1.518 5.366z" data-color="2" class="icon2"></path><path d="M176.913 44.546c-.011-.028-.016-.045-.043-.077-1.461-3.194-3.643-5.854-6.466-8.16-2.657-2.169-5.872-3.721-9.332-3.953-7.71-.518-13.629 5.452-16.995 11.753-6.639 12.427-9.639 27.698-10.89 41.631-.413 4.598-.469 9.264-.5 13.823 9.439-4.359 19.082-8.704 25.639-15.331 11.745-11.871 20.224-22.984 18.587-39.686z" data-color="1" class="icon1"></path><path d="M99.985 168.486l.153.012.008-.001a4.192 4.192 0 0 0-.145-.011h-.016z" data-color="1" class="icon1"></path><path d="M99.864 168.475l-.01-.007-.016.007c.048.005.098.008.147.011l.016-.001-.137-.01z" data-color="1" class="icon1"></path><path d="M113.545 134.516c5.857 15.672-10.965 31.709-13.192 33.741 15.477-5.945 22.995-23.012 28.586-38.526 3.551-9.853 3.569-19.83 3.633-29.909l.111-.054.002-.293c-11.844 5.47-24.4 10.453-33.809 18.172 6.462 4.598 12.137 10.093 14.669 16.869z" data-color="2" class="icon2"></path><path opacity=".6" d="M179.832 61.23c-.205-3.501-.461-7.187-1.118-10.719-.408-1.638-1.817-6.029-1.814-6 .099.237.175.396.27.636a103.247 103.247 0 0 1 1.518 5.365c.657 3.532.913 7.218 1.118 10.719a98.631 98.631 0 0 1-2.368 27.959c-4.228 18.295-13.711 35.264-27.159 48.42-7.756 7.587-26.568 20.862-26.568 20.862s-14.245 8.625-23.565 10.025l.019.001c9.321-1.397 23.574-10.027 23.574-10.027s18.812-13.275 26.568-20.862c13.447-13.156 22.93-30.124 27.158-48.42a98.74 98.74 0 0 0 2.367-27.959z" data-color="2" class="icon2"></path><path opacity=".6" d="M86.428 134.514c-7.172 19.439 13.209 33.802 13.426 33.954.172-.063.33-.145.5-.21 2.227-2.032 19.048-18.07 13.192-33.741-2.532-6.777-8.207-12.271-14.667-16.868-5.469 4.484-9.878 9.89-12.451 16.865z" data-color="2" class="icon2"></path><path opacity=".5" d="M86.428 134.514c-7.172 19.439 13.209 33.802 13.426 33.954.172-.063.33-.145.5-.21 2.227-2.032 19.048-18.07 13.192-33.741-2.532-6.777-8.207-12.271-14.667-16.868-5.469 4.484-9.878 9.89-12.451 16.865z" data-color="1" class="icon1"></path><path d="M150.278 137.609c13.448-13.156 22.93-30.124 27.159-48.42a98.631 98.631 0 0 0 2.368-27.959c-.205-3.501-.461-7.187-1.118-10.719a101.57 101.57 0 0 0-1.518-5.365c-.095-.24-.171-.399-.27-.636 1.637 16.702-7.489 27.436-19.235 39.307-6.557 6.627-15.539 11.299-24.978 15.658l-.002.293-.111.054c-.065 10.079-.083 20.056-3.633 29.909-5.591 15.514-13.109 32.581-28.586 38.526l-.244.22-.108.008.145.011c9.321-1.401 23.565-10.025 23.565-10.025s18.811-13.275 26.566-20.862z" data-color="1" class="icon1"></path><path opacity=".5" d="M150.278 137.609c13.448-13.156 22.93-30.124 27.159-48.42a98.631 98.631 0 0 0 2.368-27.959c-.205-3.501-.461-7.187-1.118-10.719a101.57 101.57 0 0 0-1.518-5.365c-.095-.24-.171-.399-.27-.636 1.637 16.702-7.489 27.436-19.235 39.307-6.557 6.627-15.539 11.299-24.978 15.658l-.002.293-.111.054c-1.038 9.944-.697 20.324-4.247 30.177-5.591 15.514-13.256 31.116-27.972 38.258l-.244.22-.108.008.145.011c9.321-1.401 23.565-10.025 23.565-10.025s18.811-13.275 26.566-20.862z" data-color="2" class="icon2"></path><path d="M99.864 168.475l.137.01.108-.008.244-.22c-.17.065-.328.148-.5.21l.011.008z" data-color="1" class="icon1"></path><path opacity=".6" d="M99.864 168.475l.137.01.108-.008.244-.22c-.17.065-.328.148-.5.21l.011.008z" data-color="2" class="icon2"></path><path d="M56.579 45.147c-.107-.346-.21-.686-.323-1.046.009.08.008.156.016.236.115.26.202.542.307.81z" data-color="1" class="icon1"></path></g></g>
</svg>
</g><g opacity="1" transform="rotate(0 532.3553 531.6509)">
<svg width="380.267" height="50" x="532.3553" y="531.6509" version="1.1" preserveAspectRatio="none" viewBox="1.8 -25.44 193.48 25.44">
  <g transform="matrix(1 0 0 1 0 0)" class="companyName"><path id="id-D6z1nYkh10" d="M6.84-17.04L6.84 0L1.80 0L1.80-25.44L8.04-25.44L12.24-11.04L16.44-25.44L22.68-25.44L22.68 0L17.64 0L17.64-17.08L14.36-5.52L10.12-5.52L6.84-17.04Z M32.80-10.84L32.80-4.20L40.96-4.20L40.96 0L27.08 0L27.08-25.44L40.64-25.44L40.64-21.24L32.80-21.24L32.80-15.04L39.48-15.04L39.48-10.84L32.80-10.84Z M59.28-21.04L59.28-17.20L53.56-17.20L53.56-20.52Q53.56-21.52 52.48-21.52L52.48-21.52L50.84-21.52Q49.76-21.52 49.76-20.52L49.76-20.52L49.76-4.92Q49.76-4.36 50-4.14Q50.24-3.92 50.84-3.92L50.84-3.92L52.48-3.92Q53.08-3.92 53.32-4.14Q53.56-4.36 53.56-4.92L53.56-4.92L53.56-9.88L51.56-9.88L51.56-13.68L59.28-13.68L59.28-4.40Q59.28 0 54.24 0L54.24 0L49.08 0Q44.04 0 44.04-4.40L44.04-4.40L44.04-21.04Q44.04-25.44 49.08-25.44L49.08-25.44L54.24-25.44Q59.28-25.44 59.28-21.04L59.28-21.04Z M80.64 0L74.88 0L74-4.60L68.20-4.60L67.32 0L61.68 0L67.44-25.44L74.72-25.44L80.64 0ZM71.08-19.52L69-8.76L73.16-8.76L71.08-19.52Z M88.44-17.04L88.44 0L83.40 0L83.40-25.44L89.64-25.44L93.84-11.04L98.04-25.44L104.28-25.44L104.28 0L99.24 0L99.24-17.08L95.96-5.52L91.72-5.52L88.44-17.04Z M118.40-5.20L118.40-25.44L124.12-25.44L124.12-4.44Q124.12 0 119.04 0L119.04 0L113.68 0Q108.64 0 108.64-4.44L108.64-4.44L108.64-25.44L114.36-25.44L114.36-5.20Q114.36-4.20 115.40-4.20L115.40-4.20L117.32-4.20Q118.40-4.20 118.40-5.20L118.40-5.20Z M137.32-5.20L137.32-5.20L137.32-9.80Q137.32-10.32 137.08-10.54Q136.84-10.76 136.24-10.76L136.24-10.76L132.72-10.76Q128.00-10.76 128.00-15.24L128.00-15.24L128.00-21.04Q128.00-25.44 133.04-25.44L133.04-25.44L137.92-25.44Q142.96-25.44 142.96-21.04L142.96-21.04L142.96-17.72L137.24-17.72L137.24-20.24Q137.24-21.24 136.16-21.24L136.16-21.24L134.80-21.24Q133.72-21.24 133.72-20.24L133.72-20.24L133.72-15.76Q133.72-15.24 133.96-15.02Q134.20-14.80 134.80-14.80L134.80-14.80L138.24-14.80Q140.80-14.80 141.92-13.70Q143.04-12.60 143.04-10.44L143.04-10.44L143.04-4.44Q143.04 0 138 0L138 0L133.16 0Q128.08 0 128.08-4.44L128.08-4.44L128.08-7.72L133.80-7.72L133.80-5.20Q133.80-4.20 134.88-4.20L134.88-4.20L136.24-4.20Q137.32-4.20 137.32-5.20Z M162-21.04L162-16.52L156.24-16.52L156.24-20.52Q156.24-21.52 155.20-21.52L155.20-21.52L153.56-21.52Q152.48-21.52 152.48-20.52L152.48-20.52L152.48-4.92Q152.48-4.36 152.72-4.14Q152.96-3.92 153.56-3.92L153.56-3.92L155.20-3.92Q155.76-3.92 156-4.14Q156.24-4.36 156.24-4.92L156.24-4.92L156.24-8.80L162-8.80L162-4.40Q162 0 156.92 0L156.92 0L151.80 0Q146.76 0 146.76-4.40L146.76-4.40L146.76-21.04Q146.76-25.44 151.80-25.44L151.80-25.44L156.92-25.44Q162-25.44 162-21.04L162-21.04Z M171.44-25.44L171.44-4.20L178.76-4.20L178.76 0L165.76 0L165.76-25.44L171.44-25.44Z M187.12-10.84L187.12-4.20L195.28-4.20L195.28 0L181.40 0L181.40-25.44L194.96-25.44L194.96-21.24L187.12-21.24L187.12-15.04L193.80-15.04L193.80-10.84L187.12-10.84Z"/></g>
</svg>
</g></svg></svg>